<?xml version="1.0" standalone="no"?>
<!DOCTYPE svg PUBLIC "-//W3C//DTD SVG 20010904//EN"
 "http://www.w3.org/TR/2001/REC-SVG-20010904/DTD/svg10.dtd">
<svg version="1.0" xmlns="http://www.w3.org/2000/svg"
 width="122.000000pt" height="101.000000pt" viewBox="0 0 122.000000 101.000000"
 preserveAspectRatio="xMidYMid meet">

<g transform="translate(0.000000,101.000000) scale(0.100000,-0.100000)"
fill="#000000" stroke="none">
<path d="M550 787 c-14 -7 -25 -21 -25 -32 0 -11 -4 -25 -8 -32 -4 -7 -5 -24
-1 -38 6 -23 4 -25 -31 -25 -20 0 -80 -5 -133 -11 -78 -10 -100 -16 -114 -33
-23 -28 -22 -57 2 -84 24 -26 27 -26 105 -8 52 13 129 20 173 17 10 -1 13 -18
10 -68 -3 -74 -17 -88 -63 -63 -33 18 -62 -2 -76 -52 -13 -51 -3 -198 17 -246
13 -32 17 -34 46 -28 69 13 205 24 249 19 61 -7 67 4 84 154 14 116 10 148
-18 171 -15 13 -73 6 -83 -9 -3 -5 -13 -9 -23 -9 -19 0 -31 40 -31 107 0 40 2
41 170 46 116 3 130 6 173 31 26 16 52 36 57 46 18 33 12 66 -14 80 -21 11
-31 10 -68 -8 -42 -19 -70 -24 -225 -38 l-73 -7 0 29 c0 16 -5 46 -11 67 -8
31 -14 37 -37 37 -15 0 -38 -6 -52 -13z m150 -529 l0 -53 -110 -2 -110 -2 0
49 c0 58 -1 57 128 59 l92 1 0 -52z"/>
</g>
</svg>
